<svg id="ehHOIaPZo5M1" xmlns="http://www.w3.org/2000/svg" xmlns:xlink="http://www.w3.org/1999/xlink" viewBox="0 0 64 64" shape-rendering="geometricPrecision" text-rendering="geometricPrecision"><style><![CDATA[#ehHOIaPZo5M2_to {animation: ehHOIaPZo5M2_to__to 3000ms linear infinite normal forwards}@keyframes ehHOIaPZo5M2_to__to { 0% {transform: translate(31.280001px,29.2px)} 50% {transform: translate(26.647916px,29.2px)} 100% {transform: translate(31.280002px,29.2px)}}]]></style><g id="ehHOIaPZo5M2_to" transform="translate(31.280001,29.2)"><g transform="translate(-31.180002,-28.849999)"><g transform="translate(21 10)"><g><path d="M47.7,35.4c0-4.6-3.7-8.2-8.2-8.2-1,0-1.9.2-2.8.5-.3-3.4-3.1-6.2-6.6-6.2-3.7,0-6.7,3-6.7,6.7c0,.8.2,1.6.4,2.3-.3-.1-.7-.1-1-.1-3.7,0-6.7,3-6.7,6.7c0,3.6,2.9,6.6,6.5,6.7h17.2c4.4-.5,7.9-4,7.9-8.4Z" transform="translate(-20-11)" fill="#57a0ee" stroke="#fff" stroke-width="1.2" stroke-linejoin="round"/></g></g></g></g></svg>